<?xml version="1.0" encoding="UTF-8" standalone="no"?>
<!-- Created with Inkscape (http://www.inkscape.org/) -->

<svg
   xmlns:osb="http://www.openswatchbook.org/uri/2009/osb"
   xmlns:dc="http://purl.org/dc/elements/1.1/"
   xmlns:cc="http://creativecommons.org/ns#"
   xmlns:rdf="http://www.w3.org/1999/02/22-rdf-syntax-ns#"
   xmlns:svg="http://www.w3.org/2000/svg"
   xmlns="http://www.w3.org/2000/svg"
   xmlns:xlink="http://www.w3.org/1999/xlink"
   xmlns:sodipodi="http://sodipodi.sourceforge.net/DTD/sodipodi-0.dtd"
   xmlns:inkscape="http://www.inkscape.org/namespaces/inkscape"
   width="64px"
   height="64px"
   id="svg2985"
   version="1.1"
   inkscape:version="0.48.3.1 r9886"
   sodipodi:docname="freesteam-gtk-64x64.svg"
   inkscape:export-filename="/home/john/freesteam/gtk/gnome/freesteam-gtk-64x64.png"
   inkscape:export-xdpi="236.00999"
   inkscape:export-ydpi="236.00999">
  <defs
     id="defs2987">
    <linearGradient
       id="linearGradient5302"
       osb:paint="solid">
      <stop
         style="stop-color:#80b3ff;stop-opacity:1;"
         offset="0"
         id="stop5304" />
    </linearGradient>
    <linearGradient
       inkscape:collect="always"
       xlink:href="#linearGradient5302"
       id="linearGradient5306"
       x1="30.727273"
       y1="24.727273"
       x2="63.454545"
       y2="24.727273"
       gradientUnits="userSpaceOnUse"
       gradientTransform="translate(-1.8181818,-0.72727273)" />
  </defs>
  <sodipodi:namedview
     id="base"
     pagecolor="#ffffff"
     bordercolor="#666666"
     borderopacity="1.0"
     inkscape:pageopacity="0.0"
     inkscape:pageshadow="2"
     inkscape:zoom="5.5"
     inkscape:cx="48.962216"
     inkscape:cy="20.072576"
     inkscape:current-layer="layer1"
     showgrid="true"
     inkscape:document-units="px"
     inkscape:grid-bbox="true"
     inkscape:window-width="1110"
     inkscape:window-height="842"
     inkscape:window-x="158"
     inkscape:window-y="262"
     inkscape:window-maximized="0" />
  <metadata
     id="metadata2990">
    <rdf:RDF>
      <cc:Work
         rdf:about="">
        <dc:format>image/svg+xml</dc:format>
        <dc:type
           rdf:resource="http://purl.org/dc/dcmitype/StillImage" />
        <dc:title></dc:title>
      </cc:Work>
    </rdf:RDF>
  </metadata>
  <g
     id="layer1"
     inkscape:label="Layer 1"
     inkscape:groupmode="layer">
    <path
       style="fill:url(#linearGradient5306);fill-opacity:1;stroke:none"
       d="m 28.909091,20.909091 2.909091,16.181818 19.272727,-4.363636 c 3.271481,-3.580242 -7.255459,2.156728 -9.272727,2.727272 -2.017269,0.570544 -0.909091,3.454546 -0.909091,3.454546 0,0 1.887387,3.238751 4.363636,4.181818 2.476249,0.943066 6.951003,1.098719 9.636364,-0.181819 2.685361,-1.280538 5.400379,-4.298747 6,-5.636363 2.363636,-5.272727 2.181817,-8.909091 2.181817,-8.909091 0,0 -0.107523,-11.616715 -1.818181,-16 -1.710658,-4.3832841 -8.727273,-7.2727269 -8.727273,-7.2727269 0,0 -9.358391,-0.7032072 -12,-0.1818182 C 37.903845,5.4304799 37.684772,5.623189 36.727273,6.5454546 35.769774,7.4677202 35.035765,8.7664781 35.090909,10 c 0.05514,1.233522 1.090909,2.727272 1.818182,3.090909 0.727273,0.363637 2.363636,3.818182 2.363636,3.818182 z"
       id="path3088"
       inkscape:connector-curvature="0"
       sodipodi:nodetypes="ccczczzsczczzzzcc"
       inkscape:export-xdpi="236.00999"
       inkscape:export-ydpi="236.00999" />
    <path
       style="fill:#0000ff;stroke:#000000;stroke-width:1px;stroke-linecap:butt;stroke-linejoin:miter;stroke-opacity:1"
       d="M 88.909091,-12.727273 100.18182,43.818182 85.818182,44 76.909091,2.5454542 z"
       id="path3001"
       inkscape:connector-curvature="0"
       sodipodi:nodetypes="ccccc" />
    <path
       style="fill:#000000;fill-opacity:1;fill-rule:nonzero;stroke:none"
       id="path3003"
       d="m 99.539878,-3.7004738 c 0.688032,0.04265 1.376122,0.103212 2.060652,0.186551 1.02122,0.156206 2.04764,0.163163 3.0761,0.103381 1.95598,-0.254166 3.92027,-0.418598 5.88801,-0.546557 1.84949,-0.17513 3.73333,-0.234545 5.50804,-0.829724 1.34985,-0.732927 -1.01221,0.59597 -1.53412,0.864625 -0.0937,0.04825 0.16368,-0.133253 0.2399,-0.206079 0.22494,-0.214926 0.40417,-0.467192 0.585,-0.718413 0.32107,-0.484296 0.65596,-0.958672 0.9687,-1.4484559 0.36179,-0.5018111 0.59398,-1.0664208 0.7943,-1.6468776 0.22919,-0.5917898 0.32185,-1.2029888 0.3114,-1.8334259 -0.0706,-0.6419438 -0.77073,-0.8898078 -1.27403,-1.1527848 -1.87809,-0.916321 -3.82956,-1.658997 -5.80928,-2.322716 -1.21328,-0.368556 -0.63589,-0.19119 -1.73248,-0.531121 l 1.99872,-1.352068 0,0 c 1.01472,0.396852 0.47504,0.193105 1.62083,0.606441 2.00782,0.724838 4.01445,1.45479 6.00556,2.223555 0.62688,0.275625 1.4636,0.541403 1.52752,1.335544 4.5e-4,0.654637 -0.0814,1.2942707 -0.29134,1.9181931 -0.18433,0.5931179 -0.40362,1.18325 -0.75783,1.6984343 -0.30347,0.5061075 -0.65836,0.9706892 -0.97415,1.4683401 -0.96234,1.3841587 -1.79469,1.9728497 -3.6711,2.6331677 -1.74301,0.433388 -3.5544,0.440843 -5.33261,0.632168 -2.03607,0.1409 -4.05941,0.377069 -6.07719,0.684024 -1.0516,0.06678 -2.09631,0.03896 -3.141502,-0.10745 -0.71986,-0.06368 -1.444922,-0.129784 -2.167593,-0.07599 z"
       inkscape:connector-curvature="0"
       sodipodi:nodetypes="ccccccsccccccccccccccccccccc" />
    <path
       style="fill:#000000;fill-opacity:1;fill-rule:nonzero;stroke:none"
       id="path3005"
       d="m 100.65811,15.157969 c 1.41786,-0.971027 2.92294,-1.831833 4.51736,-2.475033 1.13467,-0.451779 2.36016,-0.597537 3.56668,-0.72091 1.60752,-0.101775 3.21771,-0.171139 4.82741,-0.233558 1.73119,-0.06502 3.46393,-0.06107 5.19604,-0.05837 1.23117,0.06523 2.49177,-0.190145 3.70883,0.05191 0.70183,0.261798 1.32178,0.688824 1.86308,1.2005 0.37835,0.427178 0.56573,0.941495 0.63568,1.498778 0.0233,0.48383 0.0498,0.970345 0.0155,1.454089 -0.0684,0.313155 -0.24619,0.636722 -0.53211,0.806561 -2.38826,1.418617 -1.54759,1.194296 -2.68778,1.466855 l 2.08073,-1.615314 0,0 c 0.9429,-0.404584 0.27,-0.126323 -1.84359,1.115557 -0.0664,0.03903 0.1364,-0.07242 0.19983,-0.116145 0.11298,-0.07787 0.24695,-0.196041 0.32624,-0.310345 0.0371,-0.05349 0.0593,-0.115907 0.089,-0.173861 0.073,-0.462537 0.0363,-0.938411 0.0187,-1.404447 -0.0521,-0.499548 -0.16782,-0.974365 -0.51221,-1.360767 -0.49918,-0.484387 -1.0949,-0.876854 -1.76079,-1.089869 -1.15288,-0.208643 -2.34446,-0.07164 -3.50882,-0.136579 -1.73825,0.01295 -3.47667,0.02732 -5.21422,0.0819 -1.62672,0.06025 -3.25274,0.150309 -4.87462,0.290391 -1.21192,0.146105 -2.43466,0.325821 -3.56567,0.808846 -0.16581,0.07114 -0.33353,0.137999 -0.49744,0.213424 -0.16805,0.07733 -0.33364,0.16003 -0.49813,0.244698 -0.15334,0.07893 -0.60362,0.333815 -0.45517,0.246015 0.6054,-0.358071 1.21753,-0.704651 1.82629,-1.056977 -0.0875,0.05277 -0.17711,0.102151 -0.26245,0.158316 -0.057,0.03753 -0.10947,0.08164 -0.1642,0.122454 l -2.49414,0.991884 z"
       inkscape:connector-curvature="0"
       sodipodi:nodetypes="cccccccccsccccccccccccccsscccccc" />
    <path
       style="fill:#000000;fill-opacity:1;fill-rule:nonzero;stroke:none"
       id="path3007"
       d="m 108.6673,23.940961 c 0.61371,0.110697 1.23782,0.127339 1.84061,0.297021 0.44534,0.199201 0.89381,0.378698 1.30063,0.649905 0.76172,0.687523 1.53669,1.346608 2.3876,1.921966 0.53936,0.320944 1.07878,0.637814 1.61671,0.960353 0.58098,0.368112 1.02222,0.885504 1.40954,1.444684 0.40518,0.619811 0.75203,1.270233 1.04748,1.948474 0.24894,0.672283 0.44183,1.363745 0.6411,2.052034 0.0841,0.500656 0.41877,1.124992 0.30155,1.641697 -0.0194,0.08573 -0.0686,0.161863 -0.10294,0.242795 -0.85828,0.876047 -0.2182,0.259174 -2.69699,1.630217 -0.25274,0.13979 -0.62491,0.235162 -0.90987,0.266448 -0.13153,0.01444 -0.26453,0.0076 -0.39679,0.01135 -1.23476,0.0043 -2.45948,-0.172478 -3.68599,-0.293905 -0.65164,-0.06667 -1.30538,-0.108167 -1.96024,-0.120833 l 2.1338,-1.539074 0,0 c 0.62938,0.03134 1.25364,0.109505 1.87612,0.207636 1.22607,0.172825 2.46116,0.344842 3.70144,0.217567 0.3541,-0.05294 0.67172,-0.118441 1.00437,-0.253476 0.0942,-0.03823 0.36461,-0.178366 0.27814,-0.12494 -1.07682,0.66536 -2.74698,1.611795 -1.76039,1.051617 0.0531,-0.04569 0.12258,-0.07742 0.15929,-0.137081 0.2305,-0.374647 -0.13436,-1.174138 -0.20255,-1.561895 -0.21792,-0.673011 -0.3852,-1.362693 -0.64225,-2.02238 -0.26756,-0.669847 -0.60781,-1.305345 -1.01173,-1.903527 -0.37949,-0.526347 -0.80921,-1.013031 -1.38081,-1.338083 -0.528,-0.329261 -1.06921,-0.636069 -1.56509,-1.014273 -0.81991,-0.609582 -1.57026,-1.310039 -2.42264,-1.872659 -0.41885,-0.211887 -0.85392,-0.391738 -1.28353,-0.580127 -0.5986,-0.163344 -1.22179,-0.214593 -1.8411,-0.208884 z"
       inkscape:connector-curvature="0"
       sodipodi:nodetypes="ccccccccccsscccccccccccccccccccc" />
    <path
       style="fill:#ccffaa;stroke:#000000;stroke-width:1px;stroke-linecap:butt;stroke-linejoin:miter;stroke-opacity:1"
       d="M 35.46563,61.472819 23.766227,4.518582 9.4955262,20.460625 5.8957104,26.503174 3.8386725,33.059982 3.7101076,40.64531 l 2.3141678,8.613846 1.542778,8.356716 0.6428248,4.114076 5.3997238,0 -1.414213,-9.77093 -2.4427328,-12.085098 0.128565,-3.471251 3.0855568,-5.785419 2.314167,-2.699862 0.642825,7.071067 1.928473,9.385236 2.571297,9.899495 1.414214,7.071068 z"
       id="path2994"
       inkscape:connector-curvature="0"
       sodipodi:nodetypes="cccccccccccccccccccc" />
    <path
       style="fill:#00ff00;stroke:#000000;stroke-width:1px;stroke-linecap:butt;stroke-linejoin:miter;stroke-opacity:1"
       d="m 14.638121,18.660717 0,5.656854"
       id="path2998"
       inkscape:connector-curvature="0"
       sodipodi:nodetypes="cc" />
    <path
       style="fill:#b3b3b3;stroke:#000000;stroke-width:1px;stroke-linecap:butt;stroke-linejoin:miter;stroke-opacity:1"
       d="m 23.637662,3.1043684 -2.185603,2.6998623 11.313709,55.6685883 2.828427,0 z"
       id="path3000"
       inkscape:connector-curvature="0"
       sodipodi:nodetypes="ccccc" />
    <path
       style="fill:#aaaaff;stroke:#000000;stroke-width:1px;stroke-linecap:butt;stroke-linejoin:miter;stroke-opacity:1"
       d="m 15.66664,27.660258 2.828427,-2.314167 2.057038,1.028518 6.299679,28.027142 -1.799908,4.371206 L 21.452059,58.644392 17.852243,44.245126 15.66664,32.931418 z"
       id="path3002"
       inkscape:connector-curvature="0"
       sodipodi:nodetypes="ccccccccc" />
    <path
       style="fill:none;stroke:#ffffff;stroke-width:1px;stroke-linecap:butt;stroke-linejoin:miter;stroke-opacity:1"
       d="m 30.065906,21.746274 14.2707,-4.7569 c 0,0 19.79899,-6.042549 3.342687,-8.6138459 C 31.222989,5.8042307 38.936882,11.33252 38.936882,11.33252 l -0.128565,-0.25713"
       id="path3008"
       inkscape:connector-curvature="0"
       sodipodi:nodetypes="ccscc" />
    <path
       style="fill:none;stroke:#ffffff;stroke-width:1px;stroke-linecap:butt;stroke-linejoin:miter;stroke-opacity:1"
       d="m 31.222989,28.174518 c 29.82705,-8.870976 29.82705,-8.870976 29.82705,-8.870976 l -0.642824,0"
       id="path3010"
       inkscape:connector-curvature="0"
       sodipodi:nodetypes="ccc" />
    <path
       style="fill:none;stroke:#ffffff;stroke-width:1px;stroke-linecap:butt;stroke-linejoin:miter;stroke-opacity:1"
       d="M 32.251508,35.245585 C 48.964941,30.61725 48.964941,30.61725 48.964941,30.61725 c 0,0 4.499771,-2.057038 9.513801,0.128565 5.01403,2.185603 -2.442733,13.113617 -8.742411,10.542319 -6.299679,-2.571297 -6.042549,-2.699862 -6.042549,-2.699862"
       id="path3012"
       inkscape:connector-curvature="0"
       sodipodi:nodetypes="ccssc" />
  </g>
</svg>
